<svg xmlns="http://www.w3.org/2000/svg" version="1.1" width="337.7mm" height="122.7mm" viewBox = " 0 0 1196.575787 434.764137" >
<!-- Front--> 
<g transform="translate(22.5000185, 22.5000185) " > 
<polygon style="stroke:#000fff; fill:none; stroke-width:0.0354331" points="0, 0 35.433099999999996, 0 35.433099999999996, 10.62993 70.86619999999999, 10.62993 70.86619999999999, 0 95.66936999999999, 0 95.66936999999999, 10.62993 120.47254, 10.62993 120.47254, 0 145.27571, 0 145.27571, 10.62993 170.07888, 10.62993 170.07888, 0 194.88205, 0 194.88205, 10.62993 219.68522000000002, 10.62993 219.68522000000002, 0 244.48839, 0 244.48839, 10.62993 269.29156, 10.62993 269.29156, 0 294.09473, 0 294.09473, 10.62993 318.8979, 10.62993 318.8979, 0 343.70107, 0 343.70107, 10.62993 368.50424000000004, 10.62993 368.50424000000004, 0 393.30741, 0 393.30741, 10.62993 418.11058, 10.62993 418.11058, 0 442.91375, 0 442.91375, 10.62993 478.34685, 10.62993 478.34685, 0 513.77995, 0 513.77995, 42.51972 503.15002, 42.51972 503.15002, 85.03944 513.77995, 85.03944 513.77995, 109.84261000000001 503.15002, 109.84261000000001 503.15002, 152.36233 513.77995, 152.36233 513.77995, 194.88205 478.34685, 194.88205 478.34685, 184.25212 442.91375, 184.25212 442.91375, 194.88205 418.11058, 194.88205 418.11058, 184.25212 393.30741, 184.25212 393.30741, 194.88205 368.50424000000004, 194.88205 368.50424000000004, 184.25212 343.70107, 184.25212 343.70107, 194.88205 318.8979, 194.88205 318.8979, 184.25212 294.09473, 184.25212 294.09473, 194.88205 269.29156, 194.88205 269.29156, 184.25212 244.48839, 184.25212 244.48839, 194.88205 219.68522000000002, 194.88205 219.68522000000002, 184.25212 194.88205, 184.25212 194.88205, 194.88205 170.07888, 194.88205 170.07888, 184.25212 145.27571, 184.25212 145.27571, 194.88205 120.47254, 194.88205 120.47254, 184.25212 95.66936999999999, 184.25212 95.66936999999999, 194.88205 70.86619999999999, 194.88205 70.86619999999999, 184.25212 35.433099999999996, 184.25212 35.433099999999996, 194.88205 0, 194.88205 0, 152.36233 10.62993, 152.36233 10.62993, 109.84261000000001 0, 109.84261000000001 0, 85.03944 10.62993, 85.03944 10.62993, 42.51972 0, 42.51972 "/> 
</g>
<!-- Back--> 
<g transform="translate(536.2799685, 22.5000185) " > 
<polygon style="stroke:#000fff; fill:none; stroke-width:0.0354331" points="0, 0 35.433099999999996, 0 35.433099999999996, 10.62993 70.86619999999999, 10.62993 70.86619999999999, 0 95.66936999999999, 0 95.66936999999999, 10.62993 120.47254, 10.62993 120.47254, 0 145.27571, 0 145.27571, 10.62993 170.07888, 10.62993 170.07888, 0 194.88205, 0 194.88205, 10.62993 219.68522000000002, 10.62993 219.68522000000002, 0 244.48839, 0 244.48839, 10.62993 269.29156, 10.62993 269.29156, 0 294.09473, 0 294.09473, 10.62993 318.8979, 10.62993 318.8979, 0 343.70107, 0 343.70107, 10.62993 368.50424000000004, 10.62993 368.50424000000004, 0 393.30741, 0 393.30741, 10.62993 418.11058, 10.62993 418.11058, 0 442.91375, 0 442.91375, 10.62993 478.34685, 10.62993 478.34685, 0 513.77995, 0 513.77995, 42.51972 503.15002, 42.51972 503.15002, 85.03944 513.77995, 85.03944 513.77995, 109.84261000000001 503.15002, 109.84261000000001 503.15002, 152.36233 513.77995, 152.36233 513.77995, 194.88205 478.34685, 194.88205 478.34685, 184.25212 442.91375, 184.25212 442.91375, 194.88205 418.11058, 194.88205 418.11058, 184.25212 393.30741, 184.25212 393.30741, 194.88205 368.50424000000004, 194.88205 368.50424000000004, 184.25212 343.70107, 184.25212 343.70107, 194.88205 318.8979, 194.88205 318.8979, 184.25212 294.09473, 184.25212 294.09473, 194.88205 269.29156, 194.88205 269.29156, 184.25212 244.48839, 184.25212 244.48839, 194.88205 219.68522000000002, 194.88205 219.68522000000002, 184.25212 194.88205, 184.25212 194.88205, 194.88205 170.07888, 194.88205 170.07888, 184.25212 145.27571, 184.25212 145.27571, 194.88205 120.47254, 194.88205 120.47254, 184.25212 95.66936999999999, 184.25212 95.66936999999999, 194.88205 70.86619999999999, 194.88205 70.86619999999999, 184.25212 35.433099999999996, 184.25212 35.433099999999996, 194.88205 0, 194.88205 0, 152.36233 10.62993, 152.36233 10.62993, 109.84261000000001 0, 109.84261000000001 0, 85.03944 10.62993, 85.03944 10.62993, 42.51972 0, 42.51972 "/> 
 <rect x="24.80317" y="124.01585" width="53.14965" height="35.433099999999996" rx="22.5000185" ry="22.5000185" style="stroke:#000fff;stroke-width:0.0354331;fill:none" /> 
</g>
<!-- Left--> 
<g transform="translate(1050.0599185, 22.5000185) " > 
<polygon style="stroke:#000fff; fill:none; stroke-width:0.0354331" points="10.62993, 0 24.80317, 0 24.80317, 10.62993 49.60634, 10.62993 49.60634, 0 74.40951000000001, 0 74.40951000000001, 10.62993 99.21268, 10.62993 99.21268, 0 113.38592, 0 113.38592, 42.51972 124.01585, 42.51972 124.01585, 85.03944 113.38592, 85.03944 113.38592, 109.84261000000001 124.01585, 109.84261000000001 124.01585, 152.36233 113.38592, 152.36233 113.38592, 194.88205 99.21268, 194.88205 99.21268, 184.25212 74.40951000000001, 184.25212 74.40951000000001, 194.88205 49.60634, 194.88205 49.60634, 184.25212 24.80317, 184.25212 24.80317, 194.88205 10.62993, 194.88205 10.62993, 152.36233 0, 152.36233 0, 109.84261000000001 10.62993, 109.84261000000001 10.62993, 85.03944 0, 85.03944 0, 42.51972 10.62993, 42.51972 "/> 
</g>
<!-- Right--> 
<g transform="translate(1050.0599185, 217.3820685) " > 
<polygon style="stroke:#000fff; fill:none; stroke-width:0.0354331" points="10.62993, 0 24.80317, 0 24.80317, 10.62993 49.60634, 10.62993 49.60634, 0 74.40951000000001, 0 74.40951000000001, 10.62993 99.21268, 10.62993 99.21268, 0 113.38592, 0 113.38592, 42.51972 124.01585, 42.51972 124.01585, 85.03944 113.38592, 85.03944 113.38592, 109.84261000000001 124.01585, 109.84261000000001 124.01585, 152.36233 113.38592, 152.36233 113.38592, 194.88205 99.21268, 194.88205 99.21268, 184.25212 74.40951000000001, 184.25212 74.40951000000001, 194.88205 49.60634, 194.88205 49.60634, 184.25212 24.80317, 184.25212 24.80317, 194.88205 10.62993, 194.88205 10.62993, 152.36233 0, 152.36233 0, 109.84261000000001 10.62993, 109.84261000000001 10.62993, 85.03944 0, 85.03944 0, 42.51972 10.62993, 42.51972 "/> 
</g>
<!-- Top--> 
<g transform="translate(22.5000185, 217.3820685) " > 
<polygon style="stroke:#000fff; fill:none; stroke-width:0.0354331" points="10.62993, 10.62993 35.433099999999996, 10.62993 35.433099999999996, 0 70.86619999999999, 0 70.86619999999999, 10.62993 95.66936999999999, 10.62993 95.66936999999999, 0 120.47254, 0 120.47254, 10.62993 145.27571, 10.62993 145.27571, 0 170.07888, 0 170.07888, 10.62993 194.88205, 10.62993 194.88205, 0 219.68522000000002, 0 219.68522000000002, 10.62993 244.48839, 10.62993 244.48839, 0 269.29156, 0 269.29156, 10.62993 294.09473, 10.62993 294.09473, 0 318.8979, 0 318.8979, 10.62993 343.70107, 10.62993 343.70107, 0 368.50424000000004, 0 368.50424000000004, 10.62993 393.30741, 10.62993 393.30741, 0 418.11058, 0 418.11058, 10.62993 442.91375, 10.62993 442.91375, 0 478.34685, 0 478.34685, 10.62993 503.15002, 10.62993 503.15002, 24.80317 513.77995, 24.80317 513.77995, 49.60634 503.15002, 49.60634 503.15002, 74.40951000000001 513.77995, 74.40951000000001 513.77995, 99.21268 503.15002, 99.21268 503.15002, 113.38592 478.34685, 113.38592 478.34685, 124.01585 442.91375, 124.01585 442.91375, 113.38592 418.11058, 113.38592 418.11058, 124.01585 393.30741, 124.01585 393.30741, 113.38592 368.50424000000004, 113.38592 368.50424000000004, 124.01585 343.70107, 124.01585 343.70107, 113.38592 318.8979, 113.38592 318.8979, 124.01585 294.09473, 124.01585 294.09473, 113.38592 269.29156, 113.38592 269.29156, 124.01585 244.48839, 124.01585 244.48839, 113.38592 219.68522000000002, 113.38592 219.68522000000002, 124.01585 194.88205, 124.01585 194.88205, 113.38592 170.07888, 113.38592 170.07888, 124.01585 145.27571, 124.01585 145.27571, 113.38592 120.47254, 113.38592 120.47254, 124.01585 95.66936999999999, 124.01585 95.66936999999999, 113.38592 70.86619999999999, 113.38592 70.86619999999999, 124.01585 35.433099999999996, 124.01585 35.433099999999996, 113.38592 10.62993, 113.38592 10.62993, 99.21268 0, 99.21268 0, 74.40951000000001 10.62993, 74.40951000000001 10.62993, 49.60634 0, 49.60634 0, 24.80317 10.62993, 24.80317 "/> 
</g>
<!-- Bottom--> 
<g transform="translate(536.2799685, 217.3820685) " > 
<polygon style="stroke:#000fff; fill:none; stroke-width:0.0354331" points="10.62993, 10.62993 35.433099999999996, 10.62993 35.433099999999996, 0 70.86619999999999, 0 70.86619999999999, 10.62993 95.66936999999999, 10.62993 95.66936999999999, 0 120.47254, 0 120.47254, 10.62993 145.27571, 10.62993 145.27571, 0 170.07888, 0 170.07888, 10.62993 194.88205, 10.62993 194.88205, 0 219.68522000000002, 0 219.68522000000002, 10.62993 244.48839, 10.62993 244.48839, 0 269.29156, 0 269.29156, 10.62993 294.09473, 10.62993 294.09473, 0 318.8979, 0 318.8979, 10.62993 343.70107, 10.62993 343.70107, 0 368.50424000000004, 0 368.50424000000004, 10.62993 393.30741, 10.62993 393.30741, 0 418.11058, 0 418.11058, 10.62993 442.91375, 10.62993 442.91375, 0 478.34685, 0 478.34685, 10.62993 503.15002, 10.62993 503.15002, 24.80317 513.77995, 24.80317 513.77995, 49.60634 503.15002, 49.60634 503.15002, 74.40951000000001 513.77995, 74.40951000000001 513.77995, 99.21268 503.15002, 99.21268 503.15002, 113.38592 478.34685, 113.38592 478.34685, 124.01585 442.91375, 124.01585 442.91375, 113.38592 418.11058, 113.38592 418.11058, 124.01585 393.30741, 124.01585 393.30741, 113.38592 368.50424000000004, 113.38592 368.50424000000004, 124.01585 343.70107, 124.01585 343.70107, 113.38592 318.8979, 113.38592 318.8979, 124.01585 294.09473, 124.01585 294.09473, 113.38592 269.29156, 113.38592 269.29156, 124.01585 244.48839, 124.01585 244.48839, 113.38592 219.68522000000002, 113.38592 219.68522000000002, 124.01585 194.88205, 124.01585 194.88205, 113.38592 170.07888, 113.38592 170.07888, 124.01585 145.27571, 124.01585 145.27571, 113.38592 120.47254, 113.38592 120.47254, 124.01585 95.66936999999999, 124.01585 95.66936999999999, 113.38592 70.86619999999999, 113.38592 70.86619999999999, 124.01585 35.433099999999996, 124.01585 35.433099999999996, 113.38592 10.62993, 113.38592 10.62993, 99.21268 0, 99.21268 0, 74.40951000000001 10.62993, 74.40951000000001 10.62993, 49.60634 0, 49.60634 0, 24.80317 10.62993, 24.80317 "/> 
</g></svg>