<?xml version="1.0" encoding="UTF-8" standalone="no"?>
<svg
   xmlns:dc="http://purl.org/dc/elements/1.1/"
   xmlns:cc="http://creativecommons.org/ns#"
   xmlns:rdf="http://www.w3.org/1999/02/22-rdf-syntax-ns#"
   xmlns:svg="http://www.w3.org/2000/svg"
   xmlns="http://www.w3.org/2000/svg"
   xmlns:sodipodi="http://sodipodi.sourceforge.net/DTD/sodipodi-0.dtd"
   xmlns:inkscape="http://www.inkscape.org/namespaces/inkscape"
   version="1.1"
   width="690mm"
   height="240mm"
   viewBox=" 0 0 2444.8839 850.3944"
   id="svg2"
   inkscape:version="0.91 r13725"
   sodipodi:docname="AirSign.svg">
  <metadata
     id="metadata34">
    <rdf:RDF>
      <cc:Work
         rdf:about="">
        <dc:format>image/svg+xml</dc:format>
        <dc:type
           rdf:resource="http://purl.org/dc/dcmitype/StillImage" />
        <dc:title></dc:title>
      </cc:Work>
    </rdf:RDF>
  </metadata>
  <defs
     id="defs32" />
  <sodipodi:namedview
     pagecolor="#ffffff"
     bordercolor="#666666"
     borderopacity="1"
     objecttolerance="10"
     gridtolerance="10"
     guidetolerance="10"
     inkscape:pageopacity="0"
     inkscape:pageshadow="2"
     inkscape:window-width="1386"
     inkscape:window-height="1017"
     id="namedview30"
     showgrid="false"
     inkscape:zoom="1.63"
     inkscape:cx="127.15672"
     inkscape:cy="317.21869"
     inkscape:window-x="176"
     inkscape:window-y="0"
     inkscape:window-maximized="0"
     inkscape:current-layer="svg2" />
  <!-- Front-->
  <g
     transform="translate(70.86619999999999, 70.86619999999999) "
     id="g4"
     style="fill:none;stroke:#0000ff;stroke-opacity:1;stroke-width:0.0354331;stroke-miterlimit:4;stroke-dasharray:none">
    <polygon
       style="stroke:#0000ff;fill:none;stroke-width:0.0354331;stroke-opacity:1;stroke-miterlimit:4;stroke-dasharray:none"
       points="0, 0 44.291375, 0 44.291375, 10.62993 88.58275, 10.62993 88.58275, 0 124.01585, 0 124.01585, 10.62993 159.44895, 10.62993 159.44895, 0 194.88205, 0 194.88205, 10.62993 230.31515, 10.62993 230.31515, 0 265.74825, 0 265.74825, 10.62993 301.18134999999995, 10.62993 301.18134999999995, 0 336.61445, 0 336.61445, 10.62993 372.04755, 10.62993 372.04755, 0 407.48064999999997, 0 407.48064999999997, 10.62993 442.91374999999994, 10.62993 442.91374999999994, 0 478.34685, 0 478.34685, 10.62993 513.77995, 10.62993 513.77995, 0 549.21305, 0 549.21305, 10.62993 584.6461499999999, 10.62993 584.6461499999999, 0 620.07925, 0 620.07925, 10.62993 655.51235, 10.62993 655.51235, 0 690.9454499999999, 0 690.9454499999999, 10.62993 726.3785499999999, 10.62993 726.3785499999999, 0 761.81165, 0 761.81165, 10.62993 797.24475, 10.62993 797.24475, 0 832.6778499999999, 0 832.6778499999999, 10.62993 868.11095, 10.62993 868.11095, 0 903.54405, 0 903.54405, 10.62993 938.9771499999999, 10.62993 938.9771499999999, 0 974.4102499999999, 0 974.4102499999999, 10.62993 1018.7016249999999, 10.62993 1018.7016249999999, 0 1062.993, 0 1062.993, 44.291375 1052.3630699999999, 44.291375 1052.3630699999999, 88.58275 1062.993, 88.58275 1062.993, 124.01585 1052.3630699999999, 124.01585 1052.3630699999999, 159.44895 1062.993, 159.44895 1062.993, 194.88205 1052.3630699999999, 194.88205 1052.3630699999999, 230.31515 1062.993, 230.31515 1062.993, 265.74825 1052.3630699999999, 265.74825 1052.3630699999999, 310.039625 1062.993, 310.039625 1062.993, 354.331 1018.7016249999999, 354.331 1018.7016249999999, 343.70107 974.4102499999999, 343.70107 974.4102499999999, 354.331 938.9771499999999, 354.331 938.9771499999999, 343.70107 903.54405, 343.70107 903.54405, 354.331 868.11095, 354.331 868.11095, 343.70107 832.6778499999999, 343.70107 832.6778499999999, 354.331 797.24475, 354.331 797.24475, 343.70107 761.81165, 343.70107 761.81165, 354.331 726.3785499999999, 354.331 726.3785499999999, 343.70107 690.9454499999999, 343.70107 690.9454499999999, 354.331 655.51235, 354.331 655.51235, 343.70107 620.07925, 343.70107 620.07925, 354.331 584.6461499999999, 354.331 584.6461499999999, 343.70107 549.21305, 343.70107 549.21305, 354.331 513.77995, 354.331 513.77995, 343.70107 478.34685, 343.70107 478.34685, 354.331 442.91374999999994, 354.331 442.91374999999994, 343.70107 407.48064999999997, 343.70107 407.48064999999997, 354.331 372.04755, 354.331 372.04755, 343.70107 336.61445, 343.70107 336.61445, 354.331 301.18134999999995, 354.331 301.18134999999995, 343.70107 265.74825, 343.70107 265.74825, 354.331 230.31515, 354.331 230.31515, 343.70107 194.88205, 343.70107 194.88205, 354.331 159.44895, 354.331 159.44895, 343.70107 124.01585, 343.70107 124.01585, 354.331 88.58275, 354.331 88.58275, 343.70107 44.291375, 343.70107 44.291375, 354.331 0, 354.331 0, 310.039625 10.62993, 310.039625 10.62993, 265.74825 0, 265.74825 0, 230.31515 10.62993, 230.31515 10.62993, 194.88205 0, 194.88205 0, 159.44895 10.62993, 159.44895 10.62993, 124.01585 0, 124.01585 0, 88.58275 10.62993, 88.58275 10.62993, 44.291375 0, 44.291375 "
       id="polygon6" />
  </g>
  <!-- Back-->
  <!-- Left-->
  <!-- Right-->
  <g
     id="g3369"
     transform="translate(-1058.0008,4.1260023e-8)"
     style="fill:none;stroke:#0000ff;stroke-opacity:1;stroke-width:0.0354331;stroke-miterlimit:4;stroke-dasharray:none">
    <g
       id="g14"
       transform="translate(2196.8522,70.8662)"
       style="fill:none;stroke:#0000ff;stroke-opacity:1;stroke-width:0.0354331;stroke-miterlimit:4;stroke-dasharray:none">
      <polygon
         id="polygon16"
         points="35.4331,10.62993 70.8662,10.62993 70.8662,0 106.2993,0 106.2993,10.62993 141.7324,10.62993 141.7324,0 166.53557,0 166.53557,44.291375 177.1655,44.291375 177.1655,88.58275 166.53557,88.58275 166.53557,124.01585 177.1655,124.01585 177.1655,159.44895 166.53557,159.44895 166.53557,194.88205 177.1655,194.88205 177.1655,230.31515 166.53557,230.31515 166.53557,265.74825 177.1655,265.74825 177.1655,310.03963 166.53557,310.03963 166.53557,354.331 141.7324,354.331 141.7324,343.70107 106.2993,343.70107 106.2993,354.331 70.8662,354.331 70.8662,343.70107 35.4331,343.70107 35.4331,354.331 10.62993,354.331 10.62993,310.03963 0,310.03963 0,265.74825 10.62993,265.74825 10.62993,230.31515 0,230.31515 0,194.88205 10.62993,194.88205 10.62993,159.44895 0,159.44895 0,124.01585 10.62993,124.01585 10.62993,88.58275 0,88.58275 0,44.291375 10.62993,44.291375 10.62993,0 35.4331,0 "
         style="fill:none;stroke-width:0.0354331;stroke:#0000ff;stroke-opacity:1;stroke-miterlimit:4;stroke-dasharray:none" />
    </g>
    <g
       id="g18"
       transform="translate(2196.8522,425.1972)"
       style="fill:none;stroke:#0000ff;stroke-opacity:1;stroke-width:0.0354331;stroke-miterlimit:4;stroke-dasharray:none">
      <polygon
         id="polygon20"
         points="35.4331,10.62993 70.8662,10.62993 70.8662,0 106.2993,0 106.2993,10.62993 141.7324,10.62993 141.7324,0 166.53557,0 166.53557,44.291375 177.1655,44.291375 177.1655,88.58275 166.53557,88.58275 166.53557,124.01585 177.1655,124.01585 177.1655,159.44895 166.53557,159.44895 166.53557,194.88205 177.1655,194.88205 177.1655,230.31515 166.53557,230.31515 166.53557,265.74825 177.1655,265.74825 177.1655,310.03963 166.53557,310.03963 166.53557,354.331 141.7324,354.331 141.7324,343.70107 106.2993,343.70107 106.2993,354.331 70.8662,354.331 70.8662,343.70107 35.4331,343.70107 35.4331,354.331 10.62993,354.331 10.62993,310.03963 0,310.03963 0,265.74825 10.62993,265.74825 10.62993,230.31515 0,230.31515 0,194.88205 10.62993,194.88205 10.62993,159.44895 0,159.44895 0,124.01585 10.62993,124.01585 10.62993,88.58275 0,88.58275 0,44.291375 10.62993,44.291375 10.62993,0 35.4331,0 "
         style="fill:none;stroke-width:0.0354331;stroke:#0000ff;stroke-opacity:1;stroke-miterlimit:4;stroke-dasharray:none" />
    </g>
  </g>
  <!-- Top-->
  <g
     transform="translate(70.86619999999999, 425.1972) "
     id="g22"
     style="fill:none;fill-opacity:1;stroke:#0000ff;stroke-opacity:1;stroke-width:0.0354331;stroke-miterlimit:4;stroke-dasharray:none">
    <polygon
       style="stroke:#0000ff;fill:none;stroke-width:0.0354331;fill-opacity:1;stroke-opacity:1;stroke-miterlimit:4;stroke-dasharray:none"
       points="10.62993, 10.62993 44.291375, 10.62993 44.291375, 0 88.58275, 0 88.58275, 10.62993 124.01585, 10.62993 124.01585, 0 159.44895, 0 159.44895, 10.62993 194.88205, 10.62993 194.88205, 0 230.31515, 0 230.31515, 10.62993 265.74825, 10.62993 265.74825, 0 301.18134999999995, 0 301.18134999999995, 10.62993 336.61445, 10.62993 336.61445, 0 372.04755, 0 372.04755, 10.62993 407.48064999999997, 10.62993 407.48064999999997, 0 442.91374999999994, 0 442.91374999999994, 10.62993 478.34685, 10.62993 478.34685, 0 513.77995, 0 513.77995, 10.62993 549.21305, 10.62993 549.21305, 0 584.6461499999999, 0 584.6461499999999, 10.62993 620.07925, 10.62993 620.07925, 0 655.51235, 0 655.51235, 10.62993 690.9454499999999, 10.62993 690.9454499999999, 0 726.3785499999999, 0 726.3785499999999, 10.62993 761.81165, 10.62993 761.81165, 0 797.24475, 0 797.24475, 10.62993 832.6778499999999, 10.62993 832.6778499999999, 0 868.11095, 0 868.11095, 10.62993 903.54405, 10.62993 903.54405, 0 938.9771499999999, 0 938.9771499999999, 10.62993 974.4102499999999, 10.62993 974.4102499999999, 0 1018.7016249999999, 0 1018.7016249999999, 10.62993 1052.3630699999999, 10.62993 1052.3630699999999, 35.433099999999996 1062.993, 35.433099999999996 1062.993, 70.86619999999999 1052.3630699999999, 70.86619999999999 1052.3630699999999, 106.29929999999999 1062.993, 106.29929999999999 1062.993, 141.73239999999998 1052.3630699999999, 141.73239999999998 1052.3630699999999, 166.53557 1018.7016249999999, 166.53557 1018.7016249999999, 177.1655 974.4102499999999, 177.1655 974.4102499999999, 166.53557 938.9771499999999, 166.53557 938.9771499999999, 177.1655 903.54405, 177.1655 903.54405, 166.53557 868.11095, 166.53557 868.11095, 177.1655 832.6778499999999, 177.1655 832.6778499999999, 166.53557 797.24475, 166.53557 797.24475, 177.1655 761.81165, 177.1655 761.81165, 166.53557 726.3785499999999, 166.53557 726.3785499999999, 177.1655 690.9454499999999, 177.1655 690.9454499999999, 166.53557 655.51235, 166.53557 655.51235, 177.1655 620.07925, 177.1655 620.07925, 166.53557 584.6461499999999, 166.53557 584.6461499999999, 177.1655 549.21305, 177.1655 549.21305, 166.53557 513.77995, 166.53557 513.77995, 177.1655 478.34685, 177.1655 478.34685, 166.53557 442.91374999999994, 166.53557 442.91374999999994, 177.1655 407.48064999999997, 177.1655 407.48064999999997, 166.53557 372.04755, 166.53557 372.04755, 177.1655 336.61445, 177.1655 336.61445, 166.53557 301.18134999999995, 166.53557 301.18134999999995, 177.1655 265.74825, 177.1655 265.74825, 166.53557 230.31515, 166.53557 230.31515, 177.1655 194.88205, 177.1655 194.88205, 166.53557 159.44895, 166.53557 159.44895, 177.1655 124.01585, 177.1655 124.01585, 166.53557 88.58275, 166.53557 88.58275, 177.1655 44.291375, 177.1655 44.291375, 166.53557 10.62993, 166.53556999999998 10.62993, 141.73239999999998 0, 141.73239999999998 0, 106.29929999999999 10.62993, 106.29929999999999 10.62993, 70.86619999999999 0, 70.86619999999999 0, 35.433099999999996 10.62993, 35.433099999999996 "
       id="polygon24" />
  </g>
  <!-- Bottom-->
  <g
     id="g3362"
     transform="translate(-1062.0008,541.00045)"
     style="fill:none;fill-opacity:1;stroke:#0000ff;stroke-opacity:1;stroke-width:0.0354331;stroke-miterlimit:4;stroke-dasharray:none">
    <g
       id="g8"
       transform="translate(1133.8592,70.8662)"
       style="fill:none;fill-opacity:1;stroke:#0000ff;stroke-opacity:1;stroke-width:0.0354331;stroke-miterlimit:4;stroke-dasharray:none">
      <polygon
         id="polygon10"
         points="44.291375,10.62993 88.58275,10.62993 88.58275,0 124.01585,0 124.01585,10.62993 159.44895,10.62993 159.44895,0 194.88205,0 194.88205,10.62993 230.31515,10.62993 230.31515,0 265.74825,0 265.74825,10.62993 301.18135,10.62993 301.18135,0 336.61445,0 336.61445,10.62993 372.04755,10.62993 372.04755,0 407.48065,0 407.48065,10.62993 442.91375,10.62993 442.91375,0 478.34685,0 478.34685,10.62993 513.77995,10.62993 513.77995,0 549.21305,0 549.21305,10.62993 584.64615,10.62993 584.64615,0 620.07925,0 620.07925,10.62993 655.51235,10.62993 655.51235,0 690.94545,0 690.94545,10.62993 726.37855,10.62993 726.37855,0 761.81165,0 761.81165,10.62993 797.24475,10.62993 797.24475,0 832.67785,0 832.67785,10.62993 868.11095,10.62993 868.11095,0 903.54405,0 903.54405,10.62993 938.97715,10.62993 938.97715,0 974.41025,0 974.41025,10.62993 1018.7016,10.62993 1018.7016,0 1062.993,0 1062.993,44.291375 1052.3631,44.291375 1052.3631,88.58275 1062.993,88.58275 1062.993,124.01585 1052.3631,124.01585 1052.3631,159.44895 1062.993,159.44895 1062.993,194.88205 1052.3631,194.88205 1052.3631,230.31515 1062.993,230.31515 1062.993,265.74825 1052.3631,265.74825 1052.3631,310.03963 1062.993,310.03963 1062.993,354.331 1018.7016,354.331 1018.7016,343.70107 974.41025,343.70107 974.41025,354.331 938.97715,354.331 938.97715,343.70107 903.54405,343.70107 903.54405,354.331 868.11095,354.331 868.11095,343.70107 832.67785,343.70107 832.67785,354.331 797.24475,354.331 797.24475,343.70107 761.81165,343.70107 761.81165,354.331 726.37855,354.331 726.37855,343.70107 690.94545,343.70107 690.94545,354.331 655.51235,354.331 655.51235,343.70107 620.07925,343.70107 620.07925,354.331 584.64615,354.331 584.64615,343.70107 549.21305,343.70107 549.21305,354.331 513.77995,354.331 513.77995,343.70107 478.34685,343.70107 478.34685,354.331 442.91375,354.331 442.91375,343.70107 407.48065,343.70107 407.48065,354.331 372.04755,354.331 372.04755,343.70107 336.61445,343.70107 336.61445,354.331 301.18135,354.331 301.18135,343.70107 265.74825,343.70107 265.74825,354.331 230.31515,354.331 230.31515,343.70107 194.88205,343.70107 194.88205,354.331 159.44895,354.331 159.44895,343.70107 124.01585,343.70107 124.01585,354.331 88.58275,354.331 88.58275,343.70107 44.291375,343.70107 44.291375,354.331 0,354.331 0,310.03963 10.62993,310.03963 10.62993,265.74825 0,265.74825 0,230.31515 10.62993,230.31515 10.62993,194.88205 0,194.88205 0,159.44895 10.62993,159.44895 10.62993,124.01585 0,124.01585 0,88.58275 10.62993,88.58275 10.62993,44.291375 0,44.291375 0,0 44.291375,0 "
         style="fill:none;stroke-width:0.0354331;fill-opacity:1;stroke:#0000ff;stroke-opacity:1;stroke-miterlimit:4;stroke-dasharray:none" />
      <rect
         id="rect12"
         style="fill:none;stroke-width:0.0354331;fill-opacity:1;stroke:#0000ff;stroke-opacity:1;stroke-miterlimit:4;stroke-dasharray:none"
         ry="21.259859"
         rx="21.259859"
         height="35.433102"
         width="53.149651"
         y="265.74826"
         x="35.433102" />
    </g>
    <g
       id="g26"
       transform="translate(1133.8592,425.1972)"
       style="fill:none;fill-opacity:1;stroke:#0000ff;stroke-opacity:1;stroke-width:0.0354331;stroke-miterlimit:4;stroke-dasharray:none">
      <polygon
         id="polygon28"
         points="44.291375,0 88.58275,0 88.58275,10.62993 124.01585,10.62993 124.01585,0 159.44895,0 159.44895,10.62993 194.88205,10.62993 194.88205,0 230.31515,0 230.31515,10.62993 265.74825,10.62993 265.74825,0 301.18135,0 301.18135,10.62993 336.61445,10.62993 336.61445,0 372.04755,0 372.04755,10.62993 407.48065,10.62993 407.48065,0 442.91375,0 442.91375,10.62993 478.34685,10.62993 478.34685,0 513.77995,0 513.77995,10.62993 549.21305,10.62993 549.21305,0 584.64615,0 584.64615,10.62993 620.07925,10.62993 620.07925,0 655.51235,0 655.51235,10.62993 690.94545,10.62993 690.94545,0 726.37855,0 726.37855,10.62993 761.81165,10.62993 761.81165,0 797.24475,0 797.24475,10.62993 832.67785,10.62993 832.67785,0 868.11095,0 868.11095,10.62993 903.54405,10.62993 903.54405,0 938.97715,0 938.97715,10.62993 974.41025,10.62993 974.41025,0 1018.7016,0 1018.7016,10.62993 1052.3631,10.62993 1052.3631,35.4331 1062.993,35.4331 1062.993,70.8662 1052.3631,70.8662 1052.3631,106.2993 1062.993,106.2993 1062.993,141.7324 1052.3631,141.7324 1052.3631,166.53557 1018.7016,166.53557 1018.7016,177.1655 974.41025,177.1655 974.41025,166.53557 938.97715,166.53557 938.97715,177.1655 903.54405,177.1655 903.54405,166.53557 868.11095,166.53557 868.11095,177.1655 832.67785,177.1655 832.67785,166.53557 797.24475,166.53557 797.24475,177.1655 761.81165,177.1655 761.81165,166.53557 726.37855,166.53557 726.37855,177.1655 690.94545,177.1655 690.94545,166.53557 655.51235,166.53557 655.51235,177.1655 620.07925,177.1655 620.07925,166.53557 584.64615,166.53557 584.64615,177.1655 549.21305,177.1655 549.21305,166.53557 513.77995,166.53557 513.77995,177.1655 478.34685,177.1655 478.34685,166.53557 442.91375,166.53557 442.91375,177.1655 407.48065,177.1655 407.48065,166.53557 372.04755,166.53557 372.04755,177.1655 336.61445,177.1655 336.61445,166.53557 301.18135,166.53557 301.18135,177.1655 265.74825,177.1655 265.74825,166.53557 230.31515,166.53557 230.31515,177.1655 194.88205,177.1655 194.88205,166.53557 159.44895,166.53557 159.44895,177.1655 124.01585,177.1655 124.01585,166.53557 88.58275,166.53557 88.58275,177.1655 44.291375,177.1655 44.291375,166.53557 10.62993,166.53557 10.62993,141.7324 0,141.7324 0,106.2993 10.62993,106.2993 10.62993,70.8662 0,70.8662 0,35.4331 10.62993,35.4331 10.62993,10.62993 44.291375,10.62993 "
         style="fill:none;stroke-width:0.0354331;fill-opacity:1;stroke:#0000ff;stroke-opacity:1;stroke-miterlimit:4;stroke-dasharray:none" />
    </g>
  </g>
</svg>
