<?xml version="1.0" encoding="utf-8"?>
<!-- Generator: Adobe Illustrator 15.0.0, SVG Export Plug-In . SVG Version: 6.00 Build 0)  -->
<!DOCTYPE svg PUBLIC "-//W3C//DTD SVG 1.1//EN" "http://www.w3.org/Graphics/SVG/1.1/DTD/svg11.dtd">
<svg version="1.1" xmlns="http://www.w3.org/2000/svg" xmlns:xlink="http://www.w3.org/1999/xlink" x="0px" y="0px" width="320px"
	 height="165px" viewBox="0 0 320 165" enable-background="new 0 0 320 165" xml:space="preserve">
<g id="Layer_2">
</g>
<g id="Layer_1">
	<g>
		<defs>
			<rect id="SVGID_1_" x="1.178" y="19.167" width="315.988" height="127.549"/>
		</defs>
		<clipPath id="SVGID_2_">
			<use xlink:href="#SVGID_1_"  overflow="visible"/>
		</clipPath>
		<path clip-path="url(#SVGID_2_)" fill="#FFFFFF" d="M79.904,100.608c-0.233-0.006-0.481-0.077-0.744,0.034
			c-0.233,0.152-0.483,0.469-0.596,0.592c-3.009,3.326-6.008,8.813-9.715,11.914c-1.525,1.273-3.572,1.691-6.251,1.52
			c-3.155-1.974-5.201-5.051-6.086-9.296c-1.432-1.669-6.731-1.263-7.605,0.676c0.243,10.113,6.102,16.249,17.135,14.464
			c2.994-0.438,3.885-0.501,5.151-1.275c0.621-0.38,1.139-0.804,2.051-1.524c1.654-1.31,2.777-2.85,4.225-4.058
			c1.276-1.062,2.307-1.959,3.01-2.873c0.591-0.767,0.818-1.271,1.354-2.195C83.122,105.15,84.323,100.631,79.904,100.608"/>
		<path clip-path="url(#SVGID_2_)" fill="#FFFFFF" d="M97.752,83.063c-0.718,8.49-0.042,15.606-0.418,22.872
			c-0.241,4.647,0.075,6.145-0.598,14.818c0.146,2.34,0.06,6.474-0.167,9.467c-7.725,0.729-15.108,0.287-22.143,0.676
			c-1.862,0.104-4.074,0.133-5.916,0.505c-1.788,0.365-3.483,1.181-5.24,1.524c-3.148,0.609-6.307,0.798-9.465,1.349
			c-5.752,1.006-11.223,2.158-17.071,2.707c-0.912,0.058-1.411-1.649-1.692-2.537l-0.273-1.044
			c-0.829-4.87-0.571-15.516-0.571-20.587c0-10.246,0.189-18.647,0.17-28.397c-0.004-2.005,0.764-4.246-0.298-5.995
			c-1.585-0.525-5.668,0.793-8.1,1.408c-0.759,0.197-1.344,0.296-2.083,0.53c-3.531,1.133-10.132,2.07-10.826,1.701
			c-0.029-1.817,1.551-2.822,2.545-4.065c3.062-3.834,6.136-7.641,9.634-11.326c2.249-2.371,4.543-4.783,6.759-7.267
			c2.205-2.471,4.808-4.621,6.762-7.1c1.754-2.225,3.532-4.528,3.991-5.092c0.441-0.541,2.1-2.872,2.601-3.358
			c3.815-3.716,6.498-8.862,10.828-12.376c1.538-1.639,3.158-3.349,4.214-4.528c0.954-1.059,2.909-0.545,4.294,1.504
			c1.741,2.512,2.204,3.456,4.151,5.331l5.077,5.676c0.912,0.966,2.104,1.897,2.872,2.872c1.585,2.008,2.087,2.982,3.905,4.723
			c0.954,0.91,2.593,2.288,3.556,3.458c2.231,1.207,6.122-0.097,6.488-0.791c0.527-1.641,0.7-1.267,0.902-3.637
			c0.368-4.342-0.265-12.146,0.646-15.376c0.914-0.304,2.758-0.38,3.962-0.321c1.22,0,1.859,0.173,2.007,0.449
			c0.121,6.483-0.201,16.286,0.168,24.003c0.108,2.255-0.491,5.342,0,7.096c0.292,1.042,2.268,2.684,3.213,3.718
			c1.824,2.002,2.66,2.75,4.16,4.7c1.379,1.497,1.934,1.843,2.772,3.145c2.169,3.379,7.416,7.793,7.094,10.412
			C115.315,84.662,99.131,81.964,97.752,83.063 M123.931,80.913c-1.877-2.802-3.787-6.176-6.066-8.666
			c-2.214-2.421-4.082-4.598-6.521-6.989c-1.538-1.508-4.12-3.597-4.634-5.182c-0.766-2.363-0.169-5.794-0.169-8.787
			c0-6.3,0-12.143,0-18.255c0-2.768,0.013-7.697-1.351-7.775c-6.997,0.488-15.378-1.152-19.703,1.29
			c-0.626,1.901-0.343,3.866-0.299,5.186c0.024,0.718,0.044,3.979,0.044,4.798c0,2.42-0.153,5.437-1.34,3.938
			c-1.365-1.452-3.162-3.013-4.278-4.597c-3.867-3.918-7.62-11.505-13.13-15.346c-1.555-1.083-6.814-2.069-8.789-0.675
			c-0.996,0.4-2.774,2.001-4.057,3.377c-0.523,0.564-0.78,0.771-1.347,1.328c-0.542,0.532-1.463,1.77-2,2.308
			c-0.742,0.742-1.253,1.55-2.061,2.45c-2.291,2.555-3.983,4.1-5.934,6.67L38.503,40.6c-0.941,1.09-1.591,2.002-2.443,3.083
			l-5.916,6.929c-0.711,0.909-1.885,2.144-2.646,3.045c-0.906,1.069-1.464,1.617-2.424,2.702l-6.084,6.931
			c-1.234,1.543-2.732,3.513-4.402,5.156c-3.227,3.174-5.844,5.599-8.953,9.04c-2.733,3.031-4.86,4.481-4.391,9.299
			c0.567,1.007,1.256,1.905,2.364,2.363c7.578,1.362,16.896-0.873,23.392-2.57c-0.233,3.099-0.53,6.669-0.405,9.162
			c0.681,13.653-1.418,28.013-0.676,41.072c0.138,2.418,0.161,5.29,1.183,7.436c1.338,0.637,2.363,1.223,4.564,1.353
			c4.286,0.09,7.587-1.162,10.816-1.858c2.527-0.545,5.21-0.395,7.605-0.846c1.576-0.297,3.124-0.833,4.735-1.183
			c4.097-0.89,7.932-1.938,11.831-2.535c2.398-0.37,4.832-0.519,7.437-0.847c2.199-0.274,4.167-1.031,6.42-1.183
			c5.188-0.347,9.649-0.369,15.212-0.337c0.087,0.983-0.188,2.332,0.168,3.043c2.687,0.635,7.584,1.196,10.311,0.167
			c0.367-0.873,0.076-2.402,0.169-3.549c2.267-0.601,2.963-2.91,2.368-5.917c-0.377-0.866-2.423-0.589-3.014-1.169
			c-0.793-0.78-0.6-4.008-0.704-5.589c-0.638-9.495,0.48-14.415,0.104-24.38c0.075-3.221,0.086-9.232,0-9.738
			c2.322,0.073,5.619,0.751,8.841,0.973c2.921,0.226,5.871,0.802,7.716,0.149C125.748,89.37,125.129,83.013,123.931,80.913"/>
		<path clip-path="url(#SVGID_2_)" fill="#FFFFFF" d="M57.019,87.627c-2.43,0.109-5.023,0.949-6.591,1.354
			c-0.203-7.188,0.3-13.745-0.507-20.96c3.045,0.115,5.31-0.548,7.776-1.013C56.784,73.602,56.784,81.151,57.019,87.627
			 M62.427,60.415c-2.625,0.541-6.308,0.458-9.464,1.18c-1.215,0.283-2.689,0.833-4.734,1.187c-1.811,0.313-3.762,0.67-4.225,1.857
			c-0.409,1.054,0.078,2.03,0.169,3.213c0.55,7.216-0.631,16.673,0.168,25.354c0.358,0.963,1.68,1.417,2.706,1.519
			c1.222,0.124,2.526-0.556,4.021-0.684c0.621-0.055,2.308-0.562,2.923-0.651c1.2-0.172,1.822-0.346,3.026-0.694
			c2.223-0.64,4.797-0.242,6.083-1.689c-0.006-6.771-0.153-15.931,0.507-22.309C63.813,66.752,66.363,59.606,62.427,60.415"/>
		<path clip-path="url(#SVGID_2_)" fill="#FFFFFF" d="M82.323,84.034c-0.521,0.259-4.764,1.73-6.767,0.422
			c-0.202-3.991,0.221-8.789,0.34-13.018c1.944-0.942,4.937-1.687,7.607-1.35C83.211,74.687,83.928,80.312,82.323,84.034
			 M89.406,65.514c-0.598-0.966-1.202-1.361-2.472-1.38c-5.32-0.089-12.835,1.256-16.9,2.702c-1.517,1.354-1.144,3.494-1.016,6.425
			c0.275,6.269-0.955,15.359,1.86,17.745c5.672-0.291,10.14-1.752,15.149-2.684c0.34-0.063,0.713-0.131,0.907-0.357
			c0.262-0.489,0.578-2.115,0.783-3.088c0.251-1.188,0.401-2.276,0.4-3.843c-0.002-3.346,0.981-6.37,1.185-8.787
			c0.041-0.498,0.031-0.976,0.041-1.469c0.006-0.429,0.068-0.832,0.129-1.405C89.626,67.848,89.666,66.423,89.406,65.514"/>
		<path clip-path="url(#SVGID_2_)" fill="#FFFFFF" d="M161.396,67.065c-0.99-0.178-2.205-0.178-3.239-0.269
			c-0.854-0.044-17.858-0.134-18.667-0.179c-0.137,0.088-0.407,0.225-0.452,0.448c-0.088,0.227-0.088,0.78-0.045,1.183
			c0.045,0.271-0.404,27.158-0.404,27.653c0,0.988,0.182,2.249-0.09,2.88c0.404,0.493,7.126,0.254,7.53,0.12
			c0.137-0.63,0.162-12.223,0.386-12.715c1.441,0,11.651-0.21,13.048,0.15c0.223-0.221,0.178-5.462,0.223-5.729
			c-0.18-0.093-0.223-0.269-0.449-0.317c-0.675-0.089-11.922-0.269-12.912-0.447c-0.09-2.069-0.18-4.5,0.27-6.389
			c0.18-0.093,0.359-0.182,0.675-0.135c0.135,0,13.354-0.176,13.849-0.129c0.271-0.182,0.23-0.86,0.276-1.131
			C161.44,71.789,161.758,67.426,161.396,67.065"/>
		<path clip-path="url(#SVGID_2_)" fill="#FFFFFF" d="M222.498,47.227c-0.044,0.136,0.199,3.295-1.033,5.22
			c-0.551,0.861-1.217,1.485-1.438,1.708c-0.542,0.449-0.876,0.54-3.062,0.721c-2.186,0.178-3.744-1.65-4.049-2.071
			c-0.313-0.584-0.697-0.99-0.911-1.88c-0.226-0.764-0.268-2.366-0.124-4.462c0.055-1.153,0.688-2.618,0.731-2.709
			c0.722-1.619,1.545-3.017,3.859-3.184C222.021,40.169,222.544,46.735,222.498,47.227 M214.445,35.532
			c-1.889,0.314-3.373,0.99-4.858,1.799c-0.965,0.739-2.32,1.55-3.102,3.554c-0.948,2.421-1.349,5.083-1.26,6.434
			c0,0.313-0.374,2.626,1.303,6.925c2.298,5.887,9.54,6.119,13.137,5.444c0.133,0.045,3.845-1.048,5.353-2.429
			c0.724-0.646,1.673-1.326,2.112-2.114c0.677-0.902,1.609-4.024,1.802-6.522c0.193-2.501-0.403-4.949-0.721-5.893
			c0.047-0.046-2.041-3.908-3.642-4.992c-1.603-1.088-3.557-1.936-5.713-2.343C218.946,35.263,214.987,35.263,214.445,35.532"/>
		<path clip-path="url(#SVGID_2_)" fill="#FFFFFF" d="M152.514,133.371c4.596-0.155,6.254-3.253,6.968-7.291
			c1.803-0.155,5.051,1.063,6.644,0c0.562,1.431,0.209,2.953-0.486,4.699c-1.481,3.708-4.622,7.123-9.076,8.589
			c-1.778,0.584-3.906,0.986-7.248,0.982c-1.042,0.027-1.895-0.451-2.408-0.531c-1.591-0.647-1.422-0.496-2.498-1.101
			c-2.498-1.4-4.298-3.518-5.833-5.833c-1.009-2.992-2.086-6.768-2.431-9.885v-1.148c-0.082-3.838,1.928-6.604,3.564-9.226
			c2.141-3.427,3.529-4.076,7.777-5.509c4.655-1.569,8.648-1.459,12.252,0.666c1.271,0.751,2.08,1.505,2.982,2.252
			c1.254,1.033,2.476,3.013,2.878,3.737c0.403,1.124,1.082,1.772,0.853,3.878c-2.489,0.182-5.593,0.542-7.779,0.487
			c-0.274-3.217-1.611-5.155-4.54-5.512c-5.436-0.657-10.052,3.521-10.371,8.751c-0.363,5.96,2.202,10.752,6.969,11.833
			L152.514,133.371z"/>
		<path clip-path="url(#SVGID_2_)" fill="#FFFFFF" d="M184.714,121.133c0.905,1.093,1.085,5.121,1.139,7.81
			c0.069,3.404,0.059,6.965-0.326,10.092c1.761,0.214,4.458,0.4,6.998,0.323c0.301-8.349,1.093-19.954-3.743-24.245
			c-4.212-2.049-9.601,0.068-11.555,2.439c0.034-3.761,0.632-7.85-0.488-11.066c-2.784,0.598-3.916-0.145-7.096,0.108
			c-0.035,1.179-0.402,2.85-0.392,4.45c0.105,2.109,0.059,4.947,0.16,6.505c0.055,0.834,0.14,1.647,0.166,2.443
			c0.217,6.126,0.328,12.504,0.652,19.042c2.418,0.18,4.574-0.102,7.16,0.323c-0.339-7.231-2.352-19.893,6.184-19.202
			C183.573,120.155,183.807,120.038,184.714,121.133"/>
		<path clip-path="url(#SVGID_2_)" fill="#FFFFFF" d="M196.358,116.039l-0.092,3.722c-0.089,2.294,0,6.127-0.07,7.421l0.162,12.273
			c0.617-0.159,1.344,0.191,2.144,0.191c1.644,0,2.614-0.254,4.637-0.191c-0.398-1.678-0.15-4.011,0-5.491
			c0.498-4.981,0.18-11.73-0.322-18.251C200.324,116.275,199.364,115.623,196.358,116.039 M203.139,106.993
			c-2.55-0.778-4.267,0.631-6.621,0.325c0.012,2.826-0.435,3.463-0.159,5.489c1.807-0.611,4.992,0.805,7.104-0.162
			C203.38,110.734,203.03,109.096,203.139,106.993"/>
		<path clip-path="url(#SVGID_2_)" fill="#FFFFFF" d="M287.086,124.051c-0.084,0.554-1.034,0.234-1.586,0.318
			c-0.798-0.147-1.754-0.039-2.423-0.124c-1.953,0.162-1.877,0.167-5.256,0.2C278.348,119.132,286.515,119.522,287.086,124.051
			 M287.563,131.506c-1.072,2.511-3.51,2.748-6.029,2.695c-0.716-0.075-0.942-0.104-1.743-0.474c-0.814-1.356-2.3-2.036-2.064-4.442
			c5.526-0.024,10.849-0.559,16.023-0.474c-0.049-7.099-3.442-13.538-10.628-13.959c-1.454,0-2.603,0.391-3.65,0.633
			c-5.132,1.199-7.944,5.905-8.724,10.629c-0.149,0.927-0.18,2.353,0,3.489c0.775,4.846,3.989,9.018,9.835,9.677
			c6.065,0.682,12.309-2.319,12.848-7.774C291.446,131.13,289.381,130.882,287.563,131.506"/>
		<path clip-path="url(#SVGID_2_)" fill="#FFFFFF" d="M266.934,118.825c-1.067-2.522-3.227-4.164-6.4-4.64
			c-4.058-0.604-6.044,1.386-8.155,2.723c-0.06-0.638,0.146-1.533-0.16-1.921c-2.386-0.182-3.808-0.525-6.239,0.16
			c-0.01,1.646-0.051,2.534-0.09,3.608l0.09,7.266c-0.178,2.611-0.09,3.764-0.012,6.381c0,1.907-0.027,4.626-0.146,6.094
			c2.042,0.358,4.729,0.069,7.036,0.163c-0.328-1.819-0.326-3.749-0.32-6.078c0.02-4.826-0.487-10.154,2.244-11.996
			c1.951-1.321,5.911-1.004,6.073,3.039l0.163,1.44c-0.064,4.189-0.101,10.056-0.325,13.752c2.491,0.106,4.662,0.317,6.88,0.323
			c0.801-1.035,0.191-2.267,0.158-3.682c-0.113-4.887,0.809-11.363-0.477-15.512L266.934,118.825z"/>
		<path clip-path="url(#SVGID_2_)" fill="#FFFFFF" d="M213.622,138.996c-0.045-0.135-0.045-7.556,0-8.727
			c0.043-0.135-0.227-5.443,0.539-7.242c0.72-0.991,1.53-2.205,3.237-2.296c1.126-0.091,2.564,0.059,3.286,0.765
			c1.739,1.706,1.033,8.01,0.989,8.188c-0.093,0.585-0.228,8.592-0.181,9.49c0.406,0.317,6.206,0.09,6.432,0.046
			c0-0.902-0.361-12.144-0.226-12.642c0.342-2.369,0.812-4.405,2.521-5.218c0.943-0.45,2.261-0.962,3.643,0.007
			c1.87,1.311,1.695,2.924,1.759,3.586c0.069,1.653,0.179,3.92,0.221,5.722c0.045,2.021-0.109,7.827-0.109,7.963
			c0.764,0.403,6.995,0.536,7.128-0.181c0.091-0.408-0.719-15.341-0.719-15.611c-0.091-0.944-0.702-6.216-4.455-7.422
			c-1.792-0.573-4.049-0.516-6.208,0.18c-2.556,0.823-4.001,2.203-4.496,2.608c-0.091-0.405-0.496-1.124-0.586-1.171
			c-1.574-2.111-4.354-2.807-7.918-2.338c-3.564,0.468-4.455,2.925-4.813,3.017c0.046-0.226-0.088-1.893-0.314-2.61
			c-0.358-0.135-6.163,0.044-6.476,0.358c-0.138,0.721,0.005,23.487,0.187,23.713C207.241,139.136,211.867,138.861,213.622,138.996"
			/>
		<path clip-path="url(#SVGID_2_)" fill="#FFFFFF" d="M220.918,84.279c-0.081,0.553-1.034,0.232-1.587,0.317
			c-0.797-0.146-1.75-0.038-2.42-0.123c-1.954,0.162-1.877,0.166-5.257,0.2C212.182,79.362,220.349,79.751,220.918,84.279
			 M221.395,91.733c-1.071,2.509-3.512,2.749-6.027,2.695c-0.717-0.073-0.946-0.106-1.745-0.474
			c-0.813-1.354-2.298-2.036-2.063-4.442c5.525-0.024,10.849-0.56,16.024-0.474c-0.049-7.098-3.446-13.537-10.629-13.96
			c-1.453,0-2.604,0.394-3.65,0.635c-5.132,1.198-7.943,5.903-8.724,10.629c-0.149,0.926-0.18,2.354,0,3.49
			c0.777,4.842,3.989,9.015,9.833,9.673c6.067,0.687,12.311-2.317,12.849-7.772C225.281,91.358,223.214,91.111,221.395,91.733"/>
		<path clip-path="url(#SVGID_2_)" fill="#FFFFFF" d="M195.493,84.279c-0.084,0.553-1.034,0.232-1.585,0.317
			c-0.799-0.146-1.753-0.038-2.422-0.123c-1.955,0.162-1.878,0.166-5.258,0.2C186.759,79.362,194.924,79.751,195.493,84.279
			 M195.97,91.733c-1.071,2.509-3.51,2.749-6.03,2.695c-0.713-0.073-0.941-0.106-1.741-0.474c-0.814-1.354-2.3-2.036-2.065-4.442
			c5.526-0.024,10.849-0.56,16.022-0.474c-0.047-7.098-3.441-13.537-10.627-13.96c-1.453,0-2.604,0.394-3.649,0.635
			c-5.132,1.198-7.946,5.903-8.725,10.629c-0.149,0.926-0.18,2.354,0,3.49c0.775,4.842,3.993,9.015,9.835,9.673
			c6.066,0.687,12.312-2.317,12.849-7.772C199.855,91.358,197.79,91.111,195.97,91.733"/>
		<path clip-path="url(#SVGID_2_)" fill="#FFFFFF" d="M270.447,44.568c-0.082,0.553-1.037,0.234-1.586,0.316
			c-0.8-0.145-1.753-0.039-2.423-0.124c-1.954,0.163-1.875,0.167-5.254,0.2C261.711,39.649,269.876,40.038,270.447,44.568
			 M270.923,52.024c-1.073,2.509-3.51,2.746-6.027,2.695c-0.716-0.076-0.943-0.108-1.746-0.477
			c-0.813-1.353-2.298-2.036-2.062-4.439c5.523-0.028,10.847-0.563,16.021-0.477c-0.047-7.096-3.441-13.538-10.625-13.957
			c-1.456,0-2.605,0.391-3.652,0.635c-5.132,1.195-7.942,5.901-8.721,10.626c-0.152,0.927-0.184,2.355,0,3.49
			c0.772,4.842,3.989,9.016,9.834,9.675c6.064,0.685,12.308-2.319,12.848-7.771C274.808,51.645,272.741,51.399,270.923,52.024"/>
		<path clip-path="url(#SVGID_2_)" fill="#FFFFFF" d="M163.056,75.433c-0.135-0.09-0.088,3.059-0.088,3.196
			c0.088,0.584-0.498,19.927-0.138,20.149c-0.044,0.092,0,0.139-0.044,0.272c0.631,0.359,5.893,0.088,6.521,0.178
			c0.182-0.27,0.137-1.213,0.137-1.437c0.045-0.679,0.045-9.675,0.09-9.943c0.046-0.224-0.16-7.079,6.611-6.389
			c0.55,0.057,0.945,0.137,1.484,0c0.179-0.269-0.044-5.351,0-6.25c-0.178-0.271-0.403-0.226-0.716-0.226
			c-0.23,0-1.622,0.044-2.164,0.09c-0.537,0-1.349,0.314-1.435,0.358c-0.496,0.227-3.423,2.926-3.826,3.104
			c0.045-1.124-0.045-2.021-0.182-2.965C169.038,75.479,163.731,75.21,163.056,75.433"/>
		<path clip-path="url(#SVGID_2_)" fill="#FFFFFF" d="M300.973,134.683c0.359,1.304,0.943,3.958,0.943,4.093
			c0.093,0.767-0.346,1.474-0.542,1.665c-0.805,0.809-2.607,0.719-2.876,0.767c-0.271,0.044-2.341-0.18-2.698-0.136
			c-0.138,0.448-0.046,0.942-0.092,1.304c0,0.27,0.359,3.6,0.27,4.139c0.451,0.314,6.207,0.181,6.705,0.135
			c0.807-0.045,2.631-0.095,3.818-2.383c0.124-0.232,0.23-0.36,0.361-0.587c0.453-0.764,4.186-11.651,4.368-12.055
			c0.269-0.632,0.672-1.62,0.716-1.757c0.497-1.305,1.666-4.228,1.8-4.408c0.361-1.167,1.846-4.226,1.933-4.634
			c0.138-0.584,1.352-4.901,1.487-5.215c-0.046-0.182-0.136-0.271-0.269-0.406c-0.813-0.089-6.12,0.046-6.388,0
			c-0.318,0.359-1.396,4.137-1.396,4.272c-0.271,0.404-1.079,2.834-1.036,2.926c-0.538,1.169-1.889,6.973-2.292,7.825
			c0-0.18-0.271-0.718-0.316-0.853c-0.045-0.767-4.497-13.451-4.454-13.765c-0.043-0.092-0.133-0.092-0.18-0.182
			c-1.935-0.179-4.544-0.09-6.389-0.135c-0.313,0-0.945,0.045-0.987,0.316c0.494,1.213,1.483,3.73,1.573,3.777
			c0.092,0.403,2.969,8.187,3.06,8.187C298.677,129.645,300.928,134.548,300.973,134.683"/>
		<path clip-path="url(#SVGID_2_)" fill="#FFFFFF" d="M142.311,58.115c0.677,0.269,3.247,2.502,10.284,2.151
			c7.037-0.354,10.497-4.806,10.815-6.425c0,0,0.674-4.228,0.628-4.499c-0.092-1.259-0.357-2.475-0.898-3.508
			c-0.091-0.452-1.168-2.488-4.048-3.974c-1.286-0.677-2.251-0.975-3.284-1.245c-0.137-0.089-6.704-2.113-7.065-2.293
			c-0.628-0.315-1.304-0.584-1.889-0.901c-2.85-2.936,1.412-5.576,4.184-5.218c1.885,0.246,3.329,1.215,3.329,1.351
			c1.305,0.585,1.261,2.519,1.845,3.824c0.315-0.091,6.568-0.137,7.289-0.317c0.089-0.358-0.18-0.719-0.18-1.033
			c-0.093-0.764-0.585-2.881-0.72-3.241c-0.633-1.437-1.349-2.652-2.294-3.551c-0.227-0.136-2.386-1.621-3.33-1.935
			c-0.316-0.134-2.024-0.541-2.566-0.585c-1.709-0.225-4.947-0.36-5.081-0.317c-0.089,0-2.656,0.137-3.148,0.452
			c-0.721,0.18-8.067,2.585-8.098,9.132c-0.016,2.778,0.852,4.146,1.385,4.929c0.63,0.767,1.222,1.413,2.035,2
			c2.768,1.925,9.627,3.553,9.804,3.464c2.845,0.832,4.096,1.169,5.085,2.563c0.087,0,0.195,0.411,0.329,0.636
			c0.409,1.489-0.149,2.245-0.601,2.829c-0.888,1.436-2.121,1.713-6.477,1.711c-4.357-0.005-4.995-3.51-5.083-3.69
			c-0.224-0.585-0.404-1.304-0.628-1.754c-0.496-0.18-5.67-0.36-6.075-0.271c-0.214,0.026-0.541-0.089-0.765,0
			c-0.132,2.477,0.584,4.723,1.529,6.162c0.046,0-0.043-0.043,0-0.089C138.892,55.146,141.906,57.709,142.311,58.115"/>
		<path clip-path="url(#SVGID_2_)" fill="#FFFFFF" d="M173.588,59.548c-0.044-0.135-0.044-7.558,0-8.727
			c0.045-0.136-0.224-5.443,0.54-7.242c0.722-0.99,1.529-2.206,3.239-2.294c1.123-0.091,2.563,0.055,3.282,0.763
			c1.741,1.706,1.034,8.01,0.99,8.19c-0.09,0.583-0.222,8.589-0.177,9.49c0.403,0.313,6.207,0.089,6.43,0.043
			c0-0.899-0.358-12.144-0.223-12.639c0.339-2.373,0.807-4.409,2.518-5.218c0.941-0.45,2.26-0.964,3.643,0.006
			c1.869,1.311,1.692,2.921,1.757,3.584c0.069,1.653,0.179,3.922,0.224,5.721c0.041,2.025-0.111,7.829-0.111,7.965
			c0.766,0.405,6.995,0.538,7.126-0.183c0.093-0.404-0.717-15.337-0.717-15.608c-0.093-0.946-0.702-6.216-4.454-7.421
			c-1.79-0.578-4.051-0.517-6.207,0.177c-2.558,0.824-4.002,2.203-4.497,2.612c-0.092-0.409-0.497-1.125-0.587-1.172
			c-1.572-2.114-4.354-2.807-7.916-2.337c-3.566,0.466-4.456,2.921-4.814,3.012c0.043-0.224-0.089-1.888-0.314-2.609
			c-0.361-0.135-6.163,0.044-6.477,0.36c-0.137,0.721,0.004,23.487,0.186,23.713C167.206,59.688,171.834,59.413,173.588,59.548"/>
		<path clip-path="url(#SVGID_2_)" fill="#FFFFFF" d="M231.903,58.564c-0.138,0.046-0.046,0.675,0.181,0.675
			c0.314-0.496,5.397,0.045,6.43-0.36c-0.045-0.585,0.139-6.119,0-7.964c0.362-0.042,1.622-1.124,2.115-1.437
			c0.584,0.36,1.219,1.38,1.664,1.845c0.721,0.719,4.138,7.69,4.138,7.736c0.359,0.181,0.947,0.089,1.53,0.089
			c0.541,0,4.95,0.36,5.129,0.271c0.313,0.045,1.98,0,1.936-0.54c-0.63-0.45-5.581-8.771-6.391-10.032
			c0.047-0.089-2.428-3.418-2.517-3.418c-0.226-0.314-0.586-0.542-0.721-0.945c0.9-1.262,7.196-7.512,8.053-8.142
			c0.135,0.088,0.452-0.449,0.36-0.72c-0.269-0.044-6.703-0.044-7.467,0c-0.091,0.136-0.226,0.18-0.18,0.36
			c-1.262,1.483-6.614,6.657-7.47,7.109c0.044-0.138-0.089-4.511-0.181-4.603c0.181-2.698-0.402-11.684-0.402-11.773
			c-0.448-0.091-5.804,0.046-6.432,0.315C231.499,27.886,231.813,58.34,231.903,58.564"/>
	</g>
</g>
</svg>
